# xmcd
#
# Track frame offsets: 
#        150
#        1117
#        10937
#        24125
#        34520
#        51460
#        67262
#        79915
#        93147
#        104220
#        115817
#        131122
#        145117
#        154262
#        164377
#        175645
#        189455
#        204210
#        210967
#        229792
#        247042
#        265275
#        291420
#
# Disc length: 4107 seconds
#
# Revision: 2
# Processed by: cddbd v1.5.1PL2 Copyright (c) Steve Scherf et al.
# Submitted via: ExactAudioCopy v0.95b4
#
DISCID=3d100917
DTITLE=Tom Adams and Michael Cleveland - Live at the Ragged Edge
DYEAR=2004
DGENRE=Acoustic
TTITLE0=Welcome
TTITLE1=The Fiddle and The Banjo
TTITLE2=Dear Old Dixie
TTITLE3=Dance Around Molly
TTITLE4=Box Elder Beetles
TTITLE5=Cripple Creek
TTITLE6=Liberty
TTITLE7=Shady Grove
TTITLE8=Fire Ball Mail
TTITLE9=Back Up and Push
TTITLE10=John Hardy
TTITLE11=Sitting on Top of the World
TTITLE12=North Carolina Breakdown
TTITLE13=Ginny Whitt's
TTITLE14=Whistling Rufus
TTITLE15=Funky Mountain Special
TTITLE16=John Henry
TTITLE17=Ricestrow
TTITLE18=Going Down the Road Feeling Bad
TTITLE19=I Saw the Light - I'll Fly Away
TTITLE20=Little Maggie
TTITLE21=Sally Goodin
TTITLE22=Black Mountain Rag
EXTD=
EXTT0=
EXTT1=
EXTT2=
EXTT3=
EXTT4=
EXTT5=
EXTT6=
EXTT7=
EXTT8=
EXTT9=
EXTT10=
EXTT11=
EXTT12=
EXTT13=
EXTT14=
EXTT15=
EXTT16=
EXTT17=
EXTT18=
EXTT19=
EXTT20=
EXTT21=
EXTT22=
PLAYORDER=
